<mxfile host="app.diagrams.net" modified="2024-03-15T20:59:10.405Z" agent="Mozilla/5.0 (Windows NT 10.0; Win64; x64) AppleWebKit/537.36 (KHTML, like Gecko) Chrome/122.0.0.0 Safari/537.36" etag="-KFRhw3LJWoPi4PtJHgG" version="24.0.2" type="device">
  <diagram name="Page-1" id="KOlNnALaf-o1ELhG1ZsH">
    <mxGraphModel dx="2950" dy="1044" grid="1" gridSize="10" guides="1" tooltips="1" connect="1" arrows="1" fold="1" page="1" pageScale="1" pageWidth="850" pageHeight="1100" math="0" shadow="0">
      <root>
        <mxCell id="0" />
        <mxCell id="1" parent="0" />
        <mxCell id="G9_ibGyCfP6z9vh8YAoV-9" style="edgeStyle=orthogonalEdgeStyle;rounded=0;orthogonalLoop=1;jettySize=auto;html=1;exitX=0.5;exitY=1;exitDx=0;exitDy=0;entryX=0.5;entryY=0;entryDx=0;entryDy=0;" parent="1" source="G9_ibGyCfP6z9vh8YAoV-1" target="G9_ibGyCfP6z9vh8YAoV-2" edge="1">
          <mxGeometry relative="1" as="geometry" />
        </mxCell>
        <mxCell id="G9_ibGyCfP6z9vh8YAoV-1" value="RootNode" style="rounded=0;whiteSpace=wrap;html=1;" parent="1" vertex="1">
          <mxGeometry x="293.75" y="20" width="120" height="60" as="geometry" />
        </mxCell>
        <mxCell id="R__ysWbEK0faN8PiEUUg-26" style="edgeStyle=orthogonalEdgeStyle;rounded=0;orthogonalLoop=1;jettySize=auto;html=1;" edge="1" parent="1" source="G9_ibGyCfP6z9vh8YAoV-2" target="R__ysWbEK0faN8PiEUUg-19">
          <mxGeometry relative="1" as="geometry" />
        </mxCell>
        <mxCell id="R__ysWbEK0faN8PiEUUg-30" style="edgeStyle=orthogonalEdgeStyle;rounded=0;orthogonalLoop=1;jettySize=auto;html=1;entryX=0.5;entryY=0;entryDx=0;entryDy=0;" edge="1" parent="1" source="G9_ibGyCfP6z9vh8YAoV-2" target="R__ysWbEK0faN8PiEUUg-7">
          <mxGeometry relative="1" as="geometry" />
        </mxCell>
        <mxCell id="R__ysWbEK0faN8PiEUUg-36" style="edgeStyle=orthogonalEdgeStyle;rounded=0;orthogonalLoop=1;jettySize=auto;html=1;entryX=0.5;entryY=0;entryDx=0;entryDy=0;" edge="1" parent="1" source="G9_ibGyCfP6z9vh8YAoV-2" target="R__ysWbEK0faN8PiEUUg-17">
          <mxGeometry relative="1" as="geometry" />
        </mxCell>
        <mxCell id="G9_ibGyCfP6z9vh8YAoV-2" value="Selector" style="rounded=0;whiteSpace=wrap;html=1;" parent="1" vertex="1">
          <mxGeometry x="293.75" y="110" width="120" height="60" as="geometry" />
        </mxCell>
        <mxCell id="R__ysWbEK0faN8PiEUUg-1" value="IsEvading" style="rounded=0;whiteSpace=wrap;html=1;" vertex="1" parent="1">
          <mxGeometry x="-260" y="480" width="120" height="60" as="geometry" />
        </mxCell>
        <mxCell id="R__ysWbEK0faN8PiEUUg-2" value="IsOnCooldown" style="rounded=0;whiteSpace=wrap;html=1;" vertex="1" parent="1">
          <mxGeometry x="293.75" y="560" width="120" height="60" as="geometry" />
        </mxCell>
        <mxCell id="R__ysWbEK0faN8PiEUUg-4" value="WaitForEvading" style="rounded=0;whiteSpace=wrap;html=1;" vertex="1" parent="1">
          <mxGeometry x="-60" y="570" width="120" height="60" as="geometry" />
        </mxCell>
        <mxCell id="R__ysWbEK0faN8PiEUUg-5" value="IsTargeted" style="rounded=0;whiteSpace=wrap;html=1;" vertex="1" parent="1">
          <mxGeometry x="130" y="480" width="120" height="60" as="geometry" />
        </mxCell>
        <mxCell id="R__ysWbEK0faN8PiEUUg-33" style="edgeStyle=orthogonalEdgeStyle;rounded=0;orthogonalLoop=1;jettySize=auto;html=1;" edge="1" parent="1" source="R__ysWbEK0faN8PiEUUg-6" target="R__ysWbEK0faN8PiEUUg-2">
          <mxGeometry relative="1" as="geometry" />
        </mxCell>
        <mxCell id="R__ysWbEK0faN8PiEUUg-6" value="Inverter,true" style="rounded=0;whiteSpace=wrap;html=1;" vertex="1" parent="1">
          <mxGeometry x="293.75" y="480" width="120" height="60" as="geometry" />
        </mxCell>
        <mxCell id="R__ysWbEK0faN8PiEUUg-31" style="edgeStyle=orthogonalEdgeStyle;rounded=0;orthogonalLoop=1;jettySize=auto;html=1;" edge="1" parent="1" source="R__ysWbEK0faN8PiEUUg-7" target="R__ysWbEK0faN8PiEUUg-5">
          <mxGeometry relative="1" as="geometry" />
        </mxCell>
        <mxCell id="R__ysWbEK0faN8PiEUUg-32" style="edgeStyle=orthogonalEdgeStyle;rounded=0;orthogonalLoop=1;jettySize=auto;html=1;" edge="1" parent="1" source="R__ysWbEK0faN8PiEUUg-7" target="R__ysWbEK0faN8PiEUUg-6">
          <mxGeometry relative="1" as="geometry" />
        </mxCell>
        <mxCell id="R__ysWbEK0faN8PiEUUg-34" style="edgeStyle=orthogonalEdgeStyle;rounded=0;orthogonalLoop=1;jettySize=auto;html=1;" edge="1" parent="1" source="R__ysWbEK0faN8PiEUUg-7" target="R__ysWbEK0faN8PiEUUg-12">
          <mxGeometry relative="1" as="geometry" />
        </mxCell>
        <mxCell id="R__ysWbEK0faN8PiEUUg-7" value="Sequence" style="rounded=0;whiteSpace=wrap;html=1;" vertex="1" parent="1">
          <mxGeometry x="293.75" y="380" width="120" height="60" as="geometry" />
        </mxCell>
        <mxCell id="R__ysWbEK0faN8PiEUUg-12" value="SelectEvadeWaypoint" style="rounded=0;whiteSpace=wrap;html=1;" vertex="1" parent="1">
          <mxGeometry x="480" y="480" width="120" height="60" as="geometry" />
        </mxCell>
        <mxCell id="R__ysWbEK0faN8PiEUUg-17" value="ChargePlayer" style="rounded=0;whiteSpace=wrap;html=1;" vertex="1" parent="1">
          <mxGeometry x="680" y="380" width="120" height="60" as="geometry" />
        </mxCell>
        <mxCell id="R__ysWbEK0faN8PiEUUg-27" style="edgeStyle=orthogonalEdgeStyle;rounded=0;orthogonalLoop=1;jettySize=auto;html=1;entryX=0.5;entryY=0;entryDx=0;entryDy=0;" edge="1" parent="1" source="R__ysWbEK0faN8PiEUUg-19" target="R__ysWbEK0faN8PiEUUg-1">
          <mxGeometry relative="1" as="geometry" />
        </mxCell>
        <mxCell id="R__ysWbEK0faN8PiEUUg-28" style="edgeStyle=orthogonalEdgeStyle;rounded=0;orthogonalLoop=1;jettySize=auto;html=1;" edge="1" parent="1" source="R__ysWbEK0faN8PiEUUg-19" target="R__ysWbEK0faN8PiEUUg-23">
          <mxGeometry relative="1" as="geometry" />
        </mxCell>
        <mxCell id="R__ysWbEK0faN8PiEUUg-19" value="Sequence" style="rounded=0;whiteSpace=wrap;html=1;" vertex="1" parent="1">
          <mxGeometry x="-155" y="380" width="120" height="60" as="geometry" />
        </mxCell>
        <mxCell id="R__ysWbEK0faN8PiEUUg-29" style="edgeStyle=orthogonalEdgeStyle;rounded=0;orthogonalLoop=1;jettySize=auto;html=1;" edge="1" parent="1" source="R__ysWbEK0faN8PiEUUg-23" target="R__ysWbEK0faN8PiEUUg-4">
          <mxGeometry relative="1" as="geometry" />
        </mxCell>
        <mxCell id="R__ysWbEK0faN8PiEUUg-23" value="Inverter,true" style="rounded=0;whiteSpace=wrap;html=1;" vertex="1" parent="1">
          <mxGeometry x="-60" y="480" width="120" height="60" as="geometry" />
        </mxCell>
      </root>
    </mxGraphModel>
  </diagram>
</mxfile>
